<svg xmlns="http://www.w3.org/2000/svg" viewBox="0 0 32 32">
  <!-- Friendly ghost -->
  <path d="M16 2C9.4 2 4 7.4 4 14v14c0 1 1.2 1.5 2 .8l2-2 2 2c.8.8 2 .8 2.8 0l2.2-2.2 2.2 2.2c.8.8 2 .8 2.8 0l2-2 2 2c.8.7 2 .2 2-.8V14c0-6.6-5.4-12-12-12z" fill="#f0f0f0"/>
  <!-- Eyes -->
  <circle cx="11" cy="13" r="2.5" fill="#333"/>
  <circle cx="21" cy="13" r="2.5" fill="#333"/>
  <!-- Cute blush -->
  <ellipse cx="8" cy="17" rx="2" ry="1" fill="#ffb6c1" opacity="0.6"/>
  <ellipse cx="24" cy="17" rx="2" ry="1" fill="#ffb6c1" opacity="0.6"/>
</svg>
